<svg width="150" height="150" viewBox="0 0 150 150" fill="none" xmlns="http://www.w3.org/2000/svg">
<path d="M41 97L38 101L46 107L49 103L41 97ZM101 103L104 107L112 101L109 97L101 103ZM75 140C57.7609 140 41.2279 133.152 29.0381 120.962C16.8482 108.772 10 92.2391 10 75H0C0 94.8912 7.90176 113.968 21.967 128.033C36.0322 142.098 55.1088 150 75 150V140ZM140 75C140 83.5359 138.319 91.9883 135.052 99.8744C131.786 107.761 126.998 114.926 120.962 120.962C114.926 126.998 107.761 131.786 99.8744 135.052C91.9883 138.319 83.5359 140 75 140V150C94.8912 150 113.968 142.098 128.033 128.033C142.098 113.968 150 94.8912 150 75H140ZM75 10C83.5359 10 91.9883 11.6813 99.8744 14.9478C107.761 18.2144 114.926 23.0023 120.962 29.0381C126.998 35.0739 131.786 42.2394 135.052 50.1256C138.319 58.0117 140 66.4641 140 75H150C150 55.1088 142.098 36.0322 128.033 21.967C113.968 7.90176 94.8912 0 75 0V10ZM75 0C55.1088 0 36.0322 7.90176 21.967 21.967C7.90176 36.0322 0 55.1088 0 75H10C10 57.7609 16.8482 41.2279 29.0381 29.0381C41.2279 16.8482 57.7609 10 75 10V0ZM40 60H50V50H40V60ZM100 60H110V50H100V60ZM109 97C92 74.33 58 74.33 41 97L49 103C52.0273 98.9636 55.9528 95.6875 60.4656 93.4311C64.9784 91.1747 69.9545 90 75 90C80.0455 90 85.0216 91.1747 89.5344 93.4311C94.0472 95.6875 97.9727 98.9636 101 103L109 97Z" fill="#EF4444"/>
</svg>
