<svg width="36" height="36" viewBox="0 0 36 36" fill="none" xmlns="http://www.w3.org/2000/svg">
<path d="M32.6848 17.721H32.4312C31.3895 13.0652 27.2319 9.56883 22.2682 9.56883H19.0979V8.40941C20.674 7.84781 21.8153 6.35325 21.8153 4.58694C21.8153 2.34057 19.9856 0.510855 17.7392 0.510855C15.4928 0.510855 13.6631 2.34057 13.6631 4.58694C13.6631 6.35325 14.8044 7.84781 16.3805 8.40941V9.56883H13.2102C8.24643 9.56883 4.08882 13.0652 3.04716 17.721H2.79353C1.29897 17.721 0.0761414 18.9438 0.0761414 20.4384V23.1558C0.0761414 24.6503 1.29897 25.8732 2.79353 25.8732H3.29172C4.36056 29.2065 7.05984 31.7971 10.4475 32.7391C10.1939 33.2735 10.0399 33.8532 10.0399 34.4782C10.0399 35.2301 10.6468 35.8369 11.3986 35.8369H24.0798C24.8316 35.8369 25.4385 35.2301 25.4385 34.4782C25.4385 33.8532 25.2845 33.2645 25.0308 32.7391C28.4185 31.8061 31.1178 29.2065 32.1866 25.8732H32.6848C34.1794 25.8732 35.4022 24.6503 35.4022 23.1558V20.4384C35.4022 18.9438 34.1794 17.721 32.6848 17.721ZM17.7392 3.22825C18.491 3.22825 19.0979 3.83513 19.0979 4.58694C19.0979 5.33875 18.491 5.94564 17.7392 5.94564C16.9874 5.94564 16.3805 5.33875 16.3805 4.58694C16.3805 3.83513 16.9874 3.22825 17.7392 3.22825ZM22.2682 30.4022H13.2102C8.96201 30.4022 5.51092 26.9511 5.51092 22.7029V19.9855C5.51092 15.7373 8.96201 12.2862 13.2102 12.2862H22.2682C26.5164 12.2862 29.9674 15.7373 29.9674 19.9855V22.7029C29.9674 26.9511 26.5164 30.4022 22.2682 30.4022Z" fill="#00A63E"/>
<path d="M12.7573 15.9094C11.2627 15.9094 10.0399 17.1322 10.0399 18.6268V21.3442C10.0399 22.8388 11.2627 24.0616 12.7573 24.0616C14.2519 24.0616 15.4747 22.8388 15.4747 21.3442V18.6268C15.4747 17.1322 14.2519 15.9094 12.7573 15.9094Z" fill="#00A63E"/>
<path d="M22.7211 15.9094C21.2265 15.9094 20.0037 17.1322 20.0037 18.6268V21.3442C20.0037 22.8388 21.2265 24.0616 22.7211 24.0616C24.2156 24.0616 25.4385 22.8388 25.4385 21.3442V18.6268C25.4385 17.1322 24.2156 15.9094 22.7211 15.9094Z" fill="#00A63E"/>
<path d="M8.25549 3.15578L10.9729 4.06158C11.1178 4.10687 11.2627 4.13404 11.3986 4.13404C11.9693 4.13404 12.4946 3.77172 12.6848 3.20107C12.9203 2.48549 12.5399 1.71557 11.8243 1.48006L9.10694 0.574261C8.40042 0.338754 7.63049 0.719189 7.38592 1.43477C7.14136 2.15035 7.53085 2.92028 8.24643 3.15578H8.25549Z" fill="#00A63E"/>
<path d="M8.68121 8.66303C8.82614 8.66303 8.97107 8.64491 9.10694 8.59056L11.8243 7.68477C12.5399 7.44926 12.9203 6.67933 12.6848 5.96375C12.4493 5.24817 11.6794 4.86774 10.9638 5.10325L8.24643 6.00904C7.53085 6.24455 7.15042 7.01448 7.38592 7.73006C7.57614 8.30071 8.1015 8.66303 8.67215 8.66303H8.68121Z" fill="#00A63E"/>
<path d="M24.0798 4.13404C24.2247 4.13404 24.3696 4.11593 24.5055 4.06158L27.2229 3.15578C27.9385 2.92028 28.3189 2.15035 28.0834 1.43477C27.8479 0.719189 27.078 0.338754 26.3624 0.574261L23.645 1.48006C22.9294 1.71557 22.549 2.48549 22.7845 3.20107C22.9747 3.77172 23.5001 4.13404 24.0707 4.13404H24.0798Z" fill="#00A63E"/>
<path d="M23.654 7.68477L26.3714 8.59056C26.5164 8.63585 26.6613 8.66303 26.7972 8.66303C27.3678 8.66303 27.8932 8.30071 28.0834 7.73006C28.3189 7.01448 27.9385 6.24455 27.2229 6.00904L24.5055 5.10325C23.799 4.86774 23.02 5.24817 22.7845 5.96375C22.549 6.67933 22.9294 7.44926 23.645 7.68477H23.654Z" fill="#00A63E"/>
</svg>
